<?xml version="1.0" encoding="UTF-8"?>
<svg width="188px" height="74px" viewBox="0 0 188 74" version="1.1" xmlns="http://www.w3.org/2000/svg" xmlns:xlink="http://www.w3.org/1999/xlink">
    <!-- Generator: Sketch 52.6 (67491) - http://www.bohemiancoding.com/sketch -->
    <title>logo_carto_n_36</title>
    <desc>Created with Sketch.</desc>
    <g id="App" stroke="none" stroke-width="1" fill="none" fill-rule="evenodd">
        <g id="06-About" transform="translate(-304.000000, -1746.000000)" fill="#FFFFFF">
            <g id="logo_carto_n_36" transform="translate(304.000000, 1746.000000)">
                <path d="M151,74 C171.434536,74 188,57.4345357 188,37 C188,16.5654643 171.434536,0 151,0 C130.565464,0 114,16.5654643 114,37 C114,57.4345357 130.565464,74 151,74 Z" id="halo" opacity="0.2"></path>
                <path d="M12.1386057,49.9616707 C17.3168475,49.9616707 20.3094678,47.6725041 22.5287143,44.5633374 L17.6194721,41.0100041 C16.2072243,42.7525041 14.7613516,43.9141707 12.3067305,43.9141707 C9.01148571,43.9141707 6.69136439,41.1125041 6.69136439,37.5250041 L6.69136439,37.4566707 C6.69136439,33.9716707 9.01148571,31.1016707 12.3067305,31.1016707 C14.5596019,31.1016707 16.1063495,32.2291707 17.4513473,33.9033374 L22.3605895,30.0425041 C20.2758428,27.1383374 17.1823477,25.0883374 12.3739804,25.0883374 C5.24549168,25.0883374 0,30.5550041 0,37.5250041 L0,37.5933374 C0,44.7341707 5.41361641,49.9616707 12.1386057,49.9616707 L12.1386057,49.9616707 Z M33.7176201,49.4833374 L40.5434843,49.4833374 L42.2247316,45.1783374 L51.3370922,45.1783374 L53.0183395,49.4833374 L60.0123284,49.4833374 L49.9920943,25.3958374 L43.7042293,25.3958374 L33.7176201,49.4833374 Z M44.1413536,40.0191707 L46.7977244,33.2541707 L49.4204702,40.0191707 L44.1413536,40.0191707 Z M72.7143569,49.4833374 L79.2375966,49.4833374 L79.2375966,42.2400041 L82.129342,42.2400041 L86.8704595,49.4833374 L94.3688226,49.4833374 L88.7534565,41.1466707 C91.6788268,39.8825041 93.5954488,37.4566707 93.5954488,33.7666707 L93.5954488,33.6983374 C93.5954488,31.3408374 92.8893249,29.5300041 91.5107021,28.1291707 C89.9303296,26.5233374 87.4420835,25.5666707 83.8442143,25.5666707 L72.7143569,25.5666707 L72.7143569,49.4833374 Z M79.2375966,37.0466707 L79.2375966,31.2725041 L83.5415897,31.2725041 C85.6935863,31.2725041 87.0722091,32.2291707 87.0722091,34.1425041 L87.0722091,34.2108374 C87.0722091,35.9533374 85.7608362,37.0466707 83.5752147,37.0466707 L79.2375966,37.0466707 Z M113.056092,49.4833374 L113.056092,31.3750041 L106.028478,31.3750041 L106.028478,25.5666707 L126.64057,25.5666707 L126.64057,31.3750041 L119.579331,31.3750041 L119.579331,49.4833374 L113.056092,49.4833374 Z M151.644704,50 C144.821063,50 139.289408,44.4035594 139.289408,37.5 C139.289408,30.5964406 144.821063,25 151.644704,25 C158.468346,25 164,30.5964406 164,37.5 C164,44.4035594 158.468346,50 151.644704,50 Z" id="logotype"></path>
            </g>
        </g>
    </g>
</svg>